<svg width="41" height="41" viewBox="0 0 41 41" fill="none" xmlns="http://www.w3.org/2000/svg">
<g clip-path="url(#clip0_936_3409)">
<path fill-rule="evenodd" clip-rule="evenodd" d="M4.60235 33.7879H1.71341C1.53537 33.7879 1.36573 33.7123 1.24675 33.5799C1.12769 33.4475 1.07059 33.2707 1.08949 33.0937C1.36753 30.4979 2.33459 28.1083 3.80439 26.1115L3.77451 25.8243C3.7102 25.2057 3.91122 24.5889 4.32769 24.1269C4.74408 23.665 5.33686 23.4012 5.95882 23.4012H6.40384C8.00847 22.1134 9.89467 21.162 11.9555 20.654C9.50322 19.3917 7.82024 16.8334 7.82024 13.8952C7.82024 9.71265 11.2307 6.30198 15.4157 6.30198C19.5984 6.30198 23.0089 9.71257 23.0089 13.8952C23.0089 16.8333 21.326 19.3916 18.8747 20.6539C20.9351 21.1619 22.8211 22.1134 24.4256 23.4012H24.8707C25.4926 23.4012 26.0853 23.6649 26.5016 24.1268C26.9181 24.5886 27.1191 25.2054 27.055 25.8239L27.0251 26.1118C28.4947 28.1086 29.4616 30.4981 29.7396 33.0937C29.7586 33.2707 29.7014 33.4475 29.5824 33.5799C29.4635 33.7123 29.2938 33.7879 29.1158 33.7879H26.2287L26.1151 34.8825H28.1759C28.5225 34.8825 28.8034 35.1634 28.8034 35.5099V38.9894C28.8034 39.3359 28.5225 39.6168 28.1759 39.6168H2.65318C2.30667 39.6168 2.02573 39.3359 2.02573 38.9894V35.5099C2.02573 35.1634 2.30667 34.8825 2.65318 34.8825H4.71616L4.60235 33.7879ZM4.0098 28.088C3.23263 29.437 2.68792 30.937 2.43043 32.533H4.47192L4.0098 28.088ZM8.58471 23.4012H22.245C20.2544 22.189 17.9165 21.4907 15.4157 21.4907C12.9141 21.4907 10.5757 22.189 8.58471 23.4012ZM26.82 28.089L26.3589 32.533H28.3987C28.1413 30.9374 27.5968 29.4378 26.82 28.089ZM24.8535 34.8825L25.8068 25.6945C25.8343 25.4294 25.7481 25.165 25.5696 24.9671C25.3912 24.7691 25.1372 24.6561 24.8707 24.6561H5.95882C5.69231 24.6561 5.43828 24.7691 5.25977 24.9672C5.08133 25.1651 4.99514 25.4295 5.02275 25.6946L5.97781 34.8825H24.8535ZM15.4157 20.2358C18.9071 20.2358 21.754 17.3866 21.754 13.8952C21.754 10.4038 18.9071 7.55688 15.4157 7.55688C11.9222 7.55688 9.07514 10.4038 9.07514 13.8952C9.07514 17.3867 11.9221 20.2358 15.4157 20.2358ZM15.4157 32.3279C13.7645 32.3279 12.4847 31.1952 12.4847 29.9171C12.4847 28.6361 13.7645 27.5065 15.4157 27.5065C17.0672 27.5065 18.3445 28.6359 18.3445 29.9171C18.3445 31.1953 17.0672 32.3279 15.4157 32.3279ZM15.4157 31.073C15.8987 31.073 16.3395 30.9271 16.6573 30.6808C16.9133 30.4823 17.0896 30.2183 17.0896 29.9171C17.0896 29.6152 16.9134 29.3511 16.6575 29.1528C16.3397 28.9067 15.8988 28.7614 15.4157 28.7614C14.9323 28.7614 14.4909 28.9068 14.1725 29.153C13.9162 29.3513 13.7396 29.6153 13.7396 29.9171C13.7396 30.2183 13.9164 30.4821 14.1727 30.6805C14.4911 30.927 14.9324 31.073 15.4157 31.073ZM3.28063 38.3619H27.5485V36.1374H3.28063V38.3619ZM31.4193 17.8521C26.7 17.8521 22.8507 14.0028 22.8507 9.28347C22.8507 4.56418 26.7 0.714844 31.4193 0.714844C36.1386 0.714844 39.9879 4.56418 39.9879 9.28347C39.9879 14.0028 36.1386 17.8521 31.4193 17.8521ZM31.4193 16.5972C35.4475 16.5972 38.733 13.3116 38.733 9.28347C38.733 5.25531 35.4475 1.96975 31.4193 1.96975C27.3911 1.96975 24.1056 5.25531 24.1056 9.28347C24.1056 13.3116 27.3911 16.5972 31.4193 16.5972ZM30.7918 4.81665V4.25986C30.7918 3.91359 31.073 3.63241 31.4193 3.63241C31.7656 3.63241 32.0467 3.91359 32.0467 4.25986V4.80896C32.9969 4.97877 33.8882 5.55979 34.3373 6.62967C34.4712 6.94904 34.3208 7.31704 34.0015 7.45108C33.6821 7.58504 33.3141 7.43461 33.1801 7.11524C32.7286 6.03916 31.5248 5.81429 30.659 6.15492C30.1425 6.35806 29.7348 6.779 29.7649 7.38512L29.765 7.38661C29.7877 7.86645 30.0927 8.14504 30.4634 8.32614C30.7912 8.48622 31.1703 8.57673 31.5281 8.635L31.5292 8.63516C32.8834 8.85814 34.3816 9.45775 34.5752 11.0675C34.7698 12.6741 33.4143 13.5669 32.0467 13.769V14.3097C32.0467 14.656 31.7656 14.9371 31.4193 14.9371C31.073 14.9371 30.7918 14.656 30.7918 14.3097V13.7599C29.6106 13.5617 28.5736 12.8163 28.2642 11.5728C28.1805 11.2368 28.3854 10.896 28.7215 10.8124C29.0575 10.7287 29.3983 10.9337 29.4819 11.2697C29.7079 12.1777 30.6192 12.5799 31.5072 12.5578H31.5086C31.9783 12.5472 32.5005 12.4282 32.8856 12.1626C33.1825 11.9578 33.3817 11.6499 33.3294 11.2183L33.3293 11.2177C33.2652 10.6835 32.9074 10.3851 32.4847 10.1932C32.1221 10.0285 31.7107 9.93688 31.3264 9.87359C30.0065 9.65869 28.5855 9.01092 28.5115 7.44598C28.4531 6.25751 29.1867 5.38559 30.1996 4.98716C30.3889 4.91265 30.5878 4.85555 30.7918 4.81665Z" fill="black"/>
</g>
<defs>
<clipPath id="clip0_936_3409">
<rect width="40" height="40" fill="white" transform="translate(0.535156 0.166016)"/>
</clipPath>
</defs>
</svg>
