<svg width="161" height="161" viewBox="0 0 161 161" fill="none" xmlns="http://www.w3.org/2000/svg">
<path d="M81.492 26.3553L82.1367 17.1357L88.2625 17.5641L88.1586 19.0491L83.7159 18.7385L83.5506 21.1021L87.7458 21.3955L87.642 22.8805L83.4468 22.5872L83.2789 24.988L87.7216 25.2986L87.6178 26.7837L81.492 26.3553Z" fill="white"/>
<path d="M88.3329 26.8271L92.2961 22.9416L90.3602 17.8101L92.2494 18.2295L93.8326 22.4314L92.9607 22.2378L96.1611 19.0979L98.0504 19.5174L94.1369 23.3503L96.0716 28.5451L94.1823 28.1257L92.5977 23.8727L93.4697 24.0663L90.2221 27.2465L88.3329 26.8271Z" fill="white"/>
<path d="M97.4845 29.037L100.855 20.4316L104.067 21.6895C104.652 21.9188 105.126 22.2287 105.488 22.6193C105.861 23.0052 106.094 23.452 106.188 23.9597C106.286 24.4596 106.221 24.9984 105.995 25.5759C105.772 26.1458 105.449 26.5835 105.028 26.889C104.617 27.1899 104.146 27.3607 103.614 27.4013C103.083 27.442 102.525 27.3477 101.94 27.1184L100.3 26.4759L99.0554 29.6524L97.4845 29.037ZM100.843 25.0898L102.506 25.7414C102.791 25.853 103.058 25.8956 103.309 25.8693C103.562 25.8352 103.785 25.7407 103.979 25.5857C104.173 25.4308 104.321 25.2224 104.424 24.9605C104.53 24.691 104.562 24.4374 104.522 24.1996C104.485 23.9542 104.384 23.7368 104.218 23.5475C104.055 23.3506 103.832 23.1963 103.547 23.0847L101.883 22.4331L100.843 25.0898Z" fill="white"/>
<path d="M104.95 32.1522L109.469 24.0898L110.941 24.9147L107.15 31.6783L110.602 33.613L109.874 34.9117L104.95 32.1522Z" fill="white"/>
<path d="M114.4 38.4541C113.865 38.0373 113.44 37.5538 113.124 37.0038C112.808 36.4537 112.61 35.8743 112.528 35.2657C112.447 34.657 112.486 34.0481 112.646 33.439C112.818 32.8284 113.112 32.2556 113.529 31.7206C113.951 31.1791 114.435 30.7538 114.98 30.4445C115.525 30.1353 116.102 29.9457 116.712 29.8759C117.322 29.806 117.93 29.8602 118.536 30.0385C119.146 30.2102 119.722 30.507 120.264 30.9289C120.805 31.3508 121.234 31.8367 121.55 32.3868C121.865 32.9369 122.064 33.5163 122.145 34.1249C122.232 34.7271 122.192 35.3302 122.025 35.9342C121.865 36.5434 121.574 37.1187 121.152 37.6602C120.735 38.1951 120.249 38.618 119.692 38.9287C119.141 39.2328 118.56 39.4199 117.95 39.4897C117.34 39.5595 116.729 39.5086 116.119 39.3369C115.515 39.1703 114.942 38.876 114.4 38.4541ZM115.346 37.2407C115.705 37.5202 116.082 37.715 116.479 37.8248C116.881 37.9282 117.282 37.9521 117.681 37.8966C118.088 37.8462 118.471 37.7101 118.833 37.4885C119.201 37.2719 119.527 36.981 119.812 36.6156C120.096 36.2503 120.296 35.866 120.411 35.4628C120.538 35.0582 120.576 34.6527 120.525 34.2465C120.486 33.8388 120.365 33.4561 120.162 33.0983C119.958 32.7405 119.677 32.4219 119.318 32.1423C118.966 31.8678 118.591 31.6756 118.195 31.5658C117.798 31.4559 117.394 31.4294 116.983 31.4864C116.583 31.5419 116.199 31.6779 115.831 31.8945C115.468 32.1045 115.145 32.3922 114.86 32.7576C114.575 33.1229 114.373 33.5104 114.253 33.9202C114.133 34.3299 114.095 34.7353 114.139 35.1365C114.189 35.5427 114.314 35.928 114.512 36.2923C114.716 36.6501 114.994 36.9662 115.346 37.2407Z" fill="white"/>
<path d="M118.4 41.6637L125.188 35.3906L127.52 37.9141C127.947 38.3757 128.238 38.8612 128.393 39.3707C128.56 39.8806 128.576 40.3845 128.439 40.8824C128.308 41.3748 128.015 41.8314 127.56 42.2524C127.092 42.6847 126.591 42.94 126.055 43.0184C125.525 43.1029 125.007 43.0298 124.501 42.7992L123.217 46.8747L121.92 45.4717L123.358 41.0512L123.625 42.2907L122.051 40.5871L119.546 42.9027L118.4 41.6637ZM123.144 39.5767L124.348 40.8794C124.556 41.1042 124.778 41.2592 125.015 41.3446C125.257 41.4244 125.5 41.4369 125.742 41.382C125.984 41.3272 126.208 41.2043 126.415 41.0135C126.627 40.817 126.767 40.603 126.835 40.3716C126.909 40.1345 126.912 39.8947 126.846 39.6521C126.785 39.404 126.651 39.1675 126.444 38.9428L125.239 37.64L123.144 39.5767Z" fill="white"/>
<path d="M123.819 47.766L131.438 42.5332L134.914 47.5948L133.687 48.4377L131.166 44.7667L129.213 46.1083L131.594 49.5747L130.367 50.4176L127.986 46.9512L126.002 48.3138L128.523 51.9847L127.296 52.8276L123.819 47.766Z" fill="white"/>
<path d="M129.811 57.273L138.457 54.0088L139.027 55.5176L135.85 60.4162L135.579 59.6966L141.174 61.2045L141.743 62.7133L133.097 65.9774L132.496 64.3874L139.344 61.8024L139.425 62.4744L133.81 60.8418L133.74 60.6561L136.906 55.801L137.254 56.2663L130.406 58.8514L129.811 57.273Z" fill="white"/>
<path d="M134.195 72.5898C134.083 71.9209 134.097 71.2771 134.237 70.6584C134.377 70.0397 134.623 69.4787 134.974 68.9755C135.326 68.4722 135.767 68.0505 136.297 67.7103C136.837 67.3769 137.441 67.1543 138.11 67.0425C138.787 66.9293 139.431 66.9432 140.042 67.0843C140.652 67.2253 141.206 67.4766 141.702 67.838C142.198 68.1994 142.609 68.6506 142.935 69.1915C143.268 69.7311 143.491 70.3394 143.604 71.0165C143.718 71.6935 143.704 72.3414 143.565 72.9601C143.425 73.5788 143.179 74.1398 142.827 74.643C142.484 75.1449 142.046 75.5619 141.515 75.8939C140.984 76.2341 140.381 76.4608 139.704 76.574C139.035 76.6858 138.391 76.6678 137.77 76.5199C137.159 76.3707 136.604 76.1154 136.108 75.754C135.611 75.3926 135.197 74.9421 134.863 74.4025C134.531 73.871 134.308 73.2668 134.195 72.5898ZM135.712 72.3361C135.787 72.7847 135.934 73.1837 136.152 73.533C136.377 73.881 136.656 74.1697 136.988 74.3993C137.321 74.6371 137.696 74.7967 138.112 74.878C138.53 74.9675 138.967 74.9741 139.424 74.8977C139.88 74.8213 140.288 74.6736 140.645 74.4545C141.012 74.2422 141.314 73.9695 141.552 73.6362C141.799 73.3098 141.969 72.946 142.061 72.5448C142.154 72.1437 142.162 71.7188 142.087 71.2702C142.014 70.8297 141.868 70.4348 141.65 70.0855C141.432 69.7362 141.153 69.4433 140.811 69.2069C140.48 68.9773 140.105 68.8178 139.688 68.7282C139.278 68.6374 138.845 68.6301 138.388 68.7065C137.932 68.7829 137.52 68.9313 137.155 69.1517C136.789 69.3722 136.487 69.645 136.248 69.97C136.01 70.3033 135.841 70.6711 135.74 71.0736C135.648 71.4748 135.639 71.8956 135.712 72.3361Z" fill="white"/>
<path d="M134.965 77.6951L144.207 77.6729L144.215 81.1092C144.217 81.7377 144.102 82.2921 143.872 82.7723C143.65 83.2608 143.32 83.642 142.882 83.916C142.453 84.19 141.928 84.3277 141.308 84.3292C140.671 84.3307 140.129 84.179 139.682 83.8741C139.234 83.5775 138.902 83.173 138.686 82.6608L134.982 84.791L134.977 82.8806L139.029 80.6006L138.386 81.6939L138.381 79.374L134.969 79.3823L134.965 77.6951ZM139.869 79.3705L139.873 81.1444C139.874 81.4504 139.933 81.7149 140.049 81.938C140.174 82.161 140.344 82.3342 140.559 82.4578C140.774 82.5813 141.023 82.6427 141.304 82.6421C141.593 82.6414 141.841 82.5787 142.048 82.4542C142.262 82.3296 142.427 82.1555 142.543 81.932C142.666 81.7084 142.727 81.4436 142.727 81.1376L142.722 79.3636L139.869 79.3705Z" fill="white"/>
<path d="M134.82 85.9024L143.969 87.21L143.1 93.2889L141.626 93.0783L142.256 88.6695L139.911 88.3343L139.316 92.4975L137.842 92.2869L138.437 88.1237L136.055 87.7832L135.425 92.192L133.951 91.9814L134.82 85.9024Z" fill="white"/>
<path d="M136.401 99.8802L137.431 99.2023L138.27 100.477L139.218 99.3059L140.179 100.07L139.243 101.246L140.733 101.795L140.303 102.959L138.814 102.409L138.762 103.911L137.535 103.868L137.575 102.362L136.109 102.787L135.77 101.591L137.236 101.166L136.401 99.8802Z" fill="white"/>
<path d="M128.066 107.648L135.875 112.591L132.591 117.779L131.333 116.983L133.715 113.22L131.713 111.953L129.463 115.506L128.206 114.71L130.455 111.157L128.421 109.869L126.039 113.632L124.782 112.836L128.066 107.648Z" fill="white"/>
<path d="M124.388 113.471L125.927 118.804L131.363 119.535L130.097 120.999L125.647 120.398L126.231 119.723L127.476 124.03L126.21 125.494L124.694 120.23L119.203 119.467L120.469 118.003L124.964 118.627L124.38 119.303L123.122 114.935L124.388 113.471Z" fill="white"/>
<path d="M118.111 120.465L124.102 127.503L121.475 129.738C120.997 130.146 120.5 130.417 119.984 130.551C119.468 130.697 118.964 130.692 118.472 130.535C117.985 130.385 117.541 130.073 117.139 129.601C116.742 129.135 116.509 128.644 116.439 128.128C116.368 127.623 116.44 127.128 116.655 126.64C116.871 126.153 117.218 125.706 117.696 125.298L119.038 124.157L116.826 121.559L118.111 120.465ZM120.003 125.29L118.642 126.448C118.409 126.646 118.245 126.862 118.15 127.095C118.061 127.334 118.038 127.576 118.083 127.82C118.128 128.064 118.242 128.293 118.424 128.507C118.611 128.728 118.82 128.877 119.048 128.954C119.282 129.037 119.521 129.05 119.766 128.994C120.017 128.943 120.259 128.819 120.492 128.621L121.852 127.463L120.003 125.29Z" fill="white"/>
<path d="M111.842 125.57L116.82 133.356L115.399 134.265L111.222 127.733L107.888 129.865L107.086 128.611L111.842 125.57Z" fill="white"/>
<path d="M101.818 130.938C102.438 130.664 103.065 130.517 103.699 130.498C104.333 130.48 104.937 130.578 105.512 130.794C106.087 131.01 106.605 131.332 107.067 131.761C107.524 132.201 107.89 132.731 108.164 133.351C108.442 133.978 108.589 134.605 108.604 135.232C108.619 135.858 108.514 136.457 108.287 137.027C108.06 137.598 107.726 138.108 107.283 138.558C106.843 139.015 106.309 139.383 105.682 139.661C105.054 139.939 104.423 140.087 103.789 140.105C103.155 140.124 102.551 140.025 101.976 139.81C101.404 139.602 100.891 139.281 100.438 138.849C99.9763 138.42 99.6066 137.892 99.3286 137.265C99.0539 136.645 98.9111 136.016 98.9001 135.378C98.8925 134.749 99.002 134.148 99.2286 133.578C99.4552 133.007 99.7883 132.493 100.228 132.036C100.66 131.582 101.19 131.216 101.818 130.938ZM102.441 132.345C102.025 132.529 101.675 132.77 101.391 133.068C101.11 133.373 100.899 133.715 100.76 134.093C100.612 134.475 100.551 134.878 100.575 135.301C100.593 135.728 100.695 136.153 100.883 136.576C101.07 137 101.314 137.357 101.616 137.649C101.912 137.952 102.252 138.177 102.634 138.324C103.011 138.483 103.406 138.556 103.817 138.546C104.229 138.536 104.643 138.438 105.059 138.254C105.467 138.073 105.813 137.834 106.097 137.536C106.381 137.238 106.596 136.895 106.74 136.505C106.88 136.127 106.941 135.724 106.924 135.298C106.91 134.879 106.809 134.457 106.622 134.034C106.434 133.61 106.188 133.249 105.884 132.95C105.579 132.65 105.24 132.425 104.866 132.275C104.484 132.127 104.085 132.055 103.67 132.058C103.259 132.068 102.849 132.164 102.441 132.345Z" fill="white"/>
<path d="M97.1077 132.942L99.4141 141.892L96.0865 142.749C95.4778 142.906 94.9123 142.932 94.39 142.828C93.8618 142.733 93.4109 142.508 93.0372 142.151C92.6656 141.803 92.4024 141.329 92.2476 140.728C92.0887 140.111 92.1017 139.548 92.2865 139.04C92.4634 138.533 92.7733 138.111 93.2161 137.775L90.2363 134.713L92.0863 134.236L95.297 137.598L94.0788 137.245L96.3253 136.667L95.4739 133.363L97.1077 132.942ZM96.6968 138.108L94.9789 138.551C94.6826 138.627 94.4408 138.749 94.2534 138.917C94.0681 139.093 93.9423 139.3 93.8758 139.54C93.8093 139.779 93.8112 140.035 93.8814 140.307C93.9536 140.587 94.0756 140.812 94.2473 140.981C94.4211 141.158 94.6306 141.275 94.8757 141.332C95.1229 141.396 95.3946 141.39 95.6909 141.314L97.4088 140.871L96.6968 138.108Z" fill="white"/>
<path d="M89.189 134.816L90.1797 144.005L84.0744 144.663L83.9148 143.183L88.3427 142.706L88.0887 140.35L83.9075 140.801L83.7479 139.321L87.9292 138.87L87.6712 136.477L83.2433 136.954L83.0837 135.474L89.189 134.816Z" fill="white"/>
<path d="M77.8655 135.578L76.6445 144.739L75.046 144.526L72.2363 139.408L72.9987 139.51L69.0206 143.723L67.422 143.51L68.6429 134.349L70.3276 134.574L69.3607 141.829L68.7302 141.582L72.8281 137.41L73.0248 137.436L75.8009 142.524L75.2262 142.61L76.1931 135.355L77.8655 135.578Z" fill="white"/>
<path d="M62.3077 132.185C62.9498 132.404 63.5103 132.721 63.9891 133.137C64.468 133.553 64.8458 134.035 65.1225 134.583C65.3992 135.131 65.5619 135.719 65.6106 136.347C65.6489 136.98 65.5589 137.618 65.3408 138.26C65.12 138.91 64.803 139.47 64.3897 139.941C63.9764 140.412 63.493 140.781 62.9397 141.047C62.3863 141.313 61.7944 141.462 61.1639 141.492C60.5308 141.53 59.8893 141.439 59.2393 141.218C58.5893 140.998 58.0249 140.679 57.5461 140.263C57.0672 139.847 56.6894 139.365 56.4127 138.817C56.1334 138.277 55.9732 137.694 55.9323 137.069C55.8836 136.441 55.9696 135.802 56.1904 135.152C56.4086 134.51 56.7295 133.95 57.1533 133.474C57.5744 133.006 58.0617 132.639 58.615 132.372C59.1684 132.106 59.7616 131.954 60.3948 131.916C61.0201 131.875 61.6577 131.965 62.3077 132.185ZM61.8129 133.642C61.3822 133.496 60.9615 133.436 60.5507 133.462C60.1373 133.496 59.7509 133.605 59.3915 133.789C59.0244 133.97 58.7065 134.225 58.4378 134.553C58.1613 134.878 57.9486 135.26 57.7997 135.698C57.6507 136.137 57.5881 136.565 57.6119 136.984C57.6251 137.408 57.7223 137.803 57.9033 138.17C58.0737 138.543 58.3138 138.865 58.6235 139.136C58.9332 139.407 59.3034 139.616 59.7341 139.762C60.1569 139.905 60.5737 139.964 60.9845 139.938C61.3953 139.911 61.7856 139.804 62.1554 139.615C62.5148 139.431 62.8327 139.177 63.1091 138.851C63.3829 138.534 63.5943 138.156 63.7433 137.717C63.8922 137.279 63.9562 136.846 63.9351 136.42C63.914 135.993 63.8168 135.598 63.6437 135.233C63.4627 134.866 63.2187 134.543 62.9117 134.264C62.602 133.993 62.2358 133.786 61.8129 133.642Z" fill="white"/>
<path d="M57.4758 130.465L53.1094 138.61L50.0808 136.987C49.5268 136.69 49.0931 136.326 48.7798 135.895C48.4552 135.468 48.2762 134.997 48.2428 134.481C48.2054 133.973 48.3332 133.446 48.6263 132.899C48.9272 132.338 49.3179 131.933 49.7986 131.684C50.272 131.431 50.7855 131.331 51.339 131.384L51.2218 127.112L52.9056 128.015L52.9899 132.663L52.3325 131.578L54.3771 132.674L55.9889 129.668L57.4758 130.465ZM53.6738 133.986L52.1103 133.148C51.8406 133.004 51.58 132.93 51.3284 132.926C51.073 132.93 50.8399 132.998 50.6289 133.128C50.418 133.259 50.2461 133.449 50.1133 133.697C49.9765 133.952 49.914 134.2 49.9256 134.44C49.9334 134.689 50.0083 134.916 50.1504 135.124C50.2886 135.339 50.4925 135.519 50.7622 135.663L52.3257 136.501L53.6738 133.986Z" fill="white"/>
<path d="M50.369 126.472L44.875 133.904L39.9371 130.254L40.822 129.057L44.4033 131.704L45.8118 129.799L42.43 127.299L43.315 126.102L46.6967 128.602L48.1274 126.667L44.5461 124.019L45.431 122.822L50.369 126.472Z" fill="white"/>
<path d="M37.3112 121.232L37.4215 122.46L35.9018 122.597L36.4858 123.985L35.3579 124.471L34.7646 123.09L33.5762 124.143L32.7535 123.215L33.9419 122.162L32.643 121.407L33.2607 120.346L34.569 121.092L34.8876 119.6L36.1018 119.867L35.7832 121.359L37.3112 121.232Z" fill="white"/>
<path d="M34.4009 110.221L26.3594 114.776L23.3327 109.433L24.628 108.7L26.8231 112.575L28.8847 111.407L26.812 107.748L28.1072 107.014L30.18 110.673L32.274 109.487L30.079 105.612L31.3742 104.878L34.4009 110.221Z" fill="white"/>
<path d="M31.0028 104.225L25.5762 103.061L22.3622 107.505L21.6706 105.698L24.3034 102.06L24.6226 102.894L20.2386 101.955L19.5469 100.148L24.9023 101.3L28.1697 96.8218L28.8614 98.6292L26.1867 102.296L25.8675 101.462L30.3112 102.418L31.0028 104.225Z" fill="white"/>
<path d="M27.796 95.3673L18.7578 97.2979L18.0374 93.9252C17.9061 93.3105 17.9036 92.7445 18.0299 92.227C18.1463 91.7032 18.3904 91.262 18.762 90.9036C19.1256 90.5468 19.6106 90.3037 20.2172 90.1741C20.8157 90.0463 21.3587 90.0741 21.8461 90.2575C22.3237 90.4346 22.7258 90.7334 23.0524 91.1542C23.3791 91.5749 23.6081 92.0926 23.7394 92.7073L24.1073 94.43L27.4436 93.7174L27.796 95.3673ZM22.6515 94.741L22.2784 92.994C22.2144 92.6947 22.1025 92.448 21.9427 92.2538C21.7747 92.0614 21.5726 91.9269 21.3364 91.8505C21.1002 91.7741 20.8446 91.7653 20.5697 91.824C20.2866 91.8845 20.0569 91.997 19.8806 92.1615C19.6962 92.3277 19.5708 92.5321 19.5042 92.7747C19.4295 93.019 19.4241 93.2907 19.4881 93.59L19.8612 95.337L22.6515 94.741Z" fill="white"/>
<path d="M26.2907 87.4655L17.0742 88.1523L16.9488 86.4699L24.6808 85.8937L24.3867 81.9473L25.8713 81.8366L26.2907 87.4655Z" fill="white"/>
<path d="M26.3197 75.9962C26.2676 76.6724 26.0995 77.294 25.8152 77.861C25.531 78.4281 25.1577 78.9136 24.6953 79.3176C24.2328 79.7216 23.7035 80.0251 23.1072 80.228C22.5033 80.4221 21.8633 80.493 21.1871 80.441C20.5027 80.3883 19.8811 80.2201 19.3223 79.9365C18.7635 79.653 18.2866 79.2761 17.8914 78.8061C17.4963 78.336 17.2058 77.7994 17.02 77.1961C16.826 76.5923 16.7553 75.9481 16.808 75.2637C16.8607 74.5793 17.0292 73.9536 17.3134 73.3865C17.5976 72.8195 17.971 72.334 18.4334 71.93C18.8876 71.5253 19.4125 71.2256 20.0082 71.031C20.6044 70.828 21.2448 70.7529 21.9292 70.8056C22.6053 70.8577 23.2266 71.03 23.793 71.3224C24.3512 71.6143 24.8278 71.9952 25.223 72.4653C25.6181 72.9353 25.9127 73.4723 26.1067 74.0762C26.3014 74.6718 26.3724 75.3118 26.3197 75.9962ZM24.7859 75.8781C24.8209 75.4246 24.7746 75.0021 24.6471 74.6108C24.5114 74.2187 24.3101 73.8714 24.0431 73.5689C23.7767 73.258 23.4513 73.0132 23.0669 72.8342C22.6832 72.6471 22.2604 72.5357 21.7987 72.5002C21.3369 72.4646 20.9062 72.5102 20.5066 72.6371C20.0993 72.755 19.7403 72.9472 19.4295 73.2136C19.111 73.4711 18.8589 73.7834 18.673 74.1507C18.4871 74.5179 18.3767 74.9283 18.3418 75.3818C18.3075 75.8271 18.3541 76.2454 18.4815 76.6368C18.609 77.0282 18.81 77.3796 19.0847 77.6911C19.3517 77.9937 19.6771 78.2385 20.0608 78.4257C20.4363 78.6122 20.8549 78.7232 21.3167 78.7588C21.7785 78.7944 22.2133 78.7491 22.6211 78.6229C23.029 78.4967 23.388 78.3045 23.6982 78.0464C24.0091 77.78 24.2616 77.4635 24.4557 77.0969C24.6416 76.7296 24.7517 76.3234 24.7859 75.8781Z" fill="white"/>
<path d="M26.7847 70.9094L17.8086 68.708L18.6271 65.3706C18.7768 64.7601 19.0212 64.2496 19.3604 63.8388C19.6935 63.4181 20.1054 63.1274 20.5961 62.9668C21.0788 62.8041 21.6213 62.7967 22.2238 62.9444C22.8422 63.0961 23.3319 63.3737 23.6928 63.7773C24.0556 64.1728 24.2804 64.6452 24.3671 65.1944L28.4748 64.0176L28.0198 65.8731L23.5392 67.1117L24.4258 66.2051L23.8732 68.4582L27.1865 69.2708L26.7847 70.9094ZM22.4274 68.1036L22.8499 66.3807C22.9228 66.0835 22.9296 65.8127 22.8704 65.5682C22.8031 65.3218 22.6798 65.1127 22.5005 64.941C22.3212 64.7693 22.095 64.65 21.8219 64.583C21.5408 64.5141 21.285 64.5152 21.0547 64.5865C20.8163 64.6557 20.6143 64.785 20.4486 64.9743C20.275 65.1616 20.1517 65.4039 20.0788 65.7011L19.6563 67.424L22.4274 68.1036Z" fill="white"/>
<path d="M28.8817 63.0329L20.3203 59.5518L22.6333 53.8633L24.0123 54.424L22.3348 58.5496L24.5298 59.4421L26.1138 55.5464L27.4928 56.1071L25.9088 60.0028L28.1382 60.9093L29.8157 56.7838L31.1947 57.3445L28.8817 63.0329Z" fill="white"/>
<path d="M33.5345 52.7903L26.0508 47.3672L26.9971 46.0613L32.8352 46.0176L32.3839 46.6404L30.564 41.1392L31.5103 39.8333L38.994 45.2564L37.9967 46.6326L32.0701 42.3378L32.5864 41.9L34.3134 47.4871L34.197 47.6479L28.4008 47.676L28.5978 47.1293L34.5245 51.4242L33.5345 52.7903Z" fill="white"/>
<path d="M43.9034 40.6926C43.4075 41.1552 42.8631 41.4991 42.2701 41.7243C41.6771 41.9494 41.0737 42.0543 40.4598 42.0388C39.846 42.0234 39.2509 41.8886 38.6745 41.6345C38.0986 41.3688 37.5793 40.988 37.1167 40.4921C36.6485 39.9901 36.3046 39.4457 36.0851 38.8588C35.8655 38.2719 35.7693 37.6717 35.7965 37.0582C35.8236 36.4447 35.9729 35.8531 36.2443 35.2832C36.5101 34.7073 36.8939 34.1852 37.3958 33.7169C37.8978 33.2487 38.4452 32.902 39.0382 32.6768C39.6311 32.4516 40.2346 32.3468 40.8484 32.3622C41.4567 32.3716 42.0459 32.5062 42.6162 32.7659C43.1925 33.02 43.7148 33.398 44.1831 33.8999C44.6457 34.3958 44.9866 34.943 45.2057 35.5416C45.4192 36.1342 45.5124 36.7372 45.4852 37.3507C45.4581 37.9642 45.3116 38.5588 45.0458 39.1348C44.7861 39.7051 44.4053 40.2243 43.9034 40.6926ZM42.8541 39.5678C43.1867 39.2575 43.4385 38.9151 43.6094 38.5407C43.7748 38.1603 43.8615 37.7683 43.8697 37.3648C43.8839 36.9557 43.81 36.5552 43.6481 36.1634C43.4922 35.766 43.2563 35.3979 42.9404 35.0592C42.6244 34.7206 42.2764 34.4627 41.8964 34.2857C41.5167 34.097 41.1224 33.9955 40.7132 33.9813C40.3045 33.9554 39.9075 34.0148 39.5221 34.1594C39.1368 34.304 38.7778 34.5315 38.4452 34.8417C38.1186 35.1464 37.8698 35.4859 37.6988 35.8603C37.5279 36.2347 37.4381 36.6295 37.4295 37.0447C37.4214 37.4482 37.4952 37.8486 37.6511 38.2461C37.8014 38.6375 38.0345 39.0025 38.3504 39.3412C38.6663 39.6798 39.0171 39.9407 39.4028 40.1238C39.7885 40.3069 40.1829 40.4083 40.586 40.4282C40.9951 40.4424 41.3952 40.3802 41.7862 40.2416C42.1715 40.097 42.5275 39.8724 42.8541 39.5678Z" fill="white"/>
<path d="M47.7086 37.2442L42.5859 29.5518L45.4461 27.6471C45.9692 27.2987 46.4946 27.0879 47.0222 27.0148C47.5521 26.9302 48.0521 26.9947 48.5223 27.2082C48.9878 27.4149 49.3925 27.7764 49.7363 28.2927C50.0892 28.8227 50.2621 29.3584 50.255 29.8997C50.2547 30.4365 50.1008 30.9364 49.7932 31.3996L53.6148 33.3111L52.0247 34.37L47.8866 32.2519L49.1528 32.1837L47.222 33.4696L49.1129 36.3091L47.7086 37.2442ZM46.3968 32.2305L47.8734 31.2472C48.1281 31.0776 48.3163 30.8828 48.4379 30.6626C48.555 30.4356 48.6056 30.1982 48.5897 29.9505C48.5738 29.7027 48.4879 29.4619 48.332 29.2278C48.1716 28.9869 47.9824 28.8148 47.7646 28.7114C47.5421 28.6012 47.3059 28.5598 47.0558 28.5872C46.8012 28.6077 46.5466 28.7028 46.2919 28.8724L44.8153 29.8557L46.3968 32.2305Z" fill="white"/>
<path d="M54.5836 32.8592L50.625 24.5078L56.1739 21.8776L56.8115 23.2228L52.7872 25.1304L53.8021 27.2714L57.6022 25.4702L58.2398 26.8153L54.4397 28.6166L55.4705 30.7914L59.4949 28.8838L60.1325 30.229L54.5836 32.8592Z" fill="white"/>
<path d="M65.2941 23.8683L64.1525 23.4021L64.7294 21.9894L63.2276 21.8702L63.3146 20.6453L64.8132 20.7526L64.4239 19.2131L65.6266 18.909L66.0159 20.4484L67.2834 19.6416L67.9421 20.6778L66.6777 21.4966L67.8568 22.4653L67.0621 23.4212L65.883 22.4526L65.2941 23.8683Z" fill="white"/>
<circle cx="80.4219" cy="80.9375" r="79.5" stroke="white"/>
<circle cx="80.4199" cy="80.9375" r="33.4902" stroke="white"/>
<circle cx="80.4219" cy="80.9375" r="20" fill="#BFF747"/>
<path d="M85.5165 77.6471L74.5615 88.6022L72.7617 86.8024L83.7155 75.8474H74.0613V73.3018H88.0621V87.3026H85.5165V77.6471Z" fill="black"/>
</svg>
