<svg width="43" height="43" viewBox="0 0 43 43" fill="none" xmlns="http://www.w3.org/2000/svg">
<g clip-path="url(#clip0_948_4798)">
<path d="M16.5156 25.416H3.76562C2.9372 25.416 2.26562 26.0876 2.26562 26.916V39.666C2.26562 40.4944 2.9372 41.166 3.76562 41.166H16.5156C17.3441 41.166 18.0156 40.4944 18.0156 39.666V26.916C18.0156 26.0876 17.3441 25.416 16.5156 25.416Z" stroke="#BFF747" stroke-width="1.5" stroke-linecap="round" stroke-linejoin="round"/>
<path d="M39.7656 25.416H27.0156C26.1872 25.416 25.5156 26.0876 25.5156 26.916V39.666C25.5156 40.4944 26.1872 41.166 27.0156 41.166H39.7656C40.5941 41.166 41.2656 40.4944 41.2656 39.666V26.916C41.2656 26.0876 40.5941 25.416 39.7656 25.416Z" stroke="#BFF747" stroke-width="1.5" stroke-linecap="round" stroke-linejoin="round"/>
<path d="M28.1562 2.16602H15.4062C14.5778 2.16602 13.9062 2.83759 13.9062 3.66602V16.416C13.9062 17.2444 14.5778 17.916 15.4062 17.916H28.1562C28.9847 17.916 29.6562 17.2444 29.6562 16.416V3.66602C29.6562 2.83759 28.9847 2.16602 28.1562 2.16602Z" stroke="#BFF747" stroke-width="1.5" stroke-linecap="round" stroke-linejoin="round"/>
</g>
<defs>
<clipPath id="clip0_948_4798">
<rect width="42" height="42" fill="white" transform="translate(0.765625 0.666016)"/>
</clipPath>
</defs>
</svg>
