<svg width="51" height="51" viewBox="0 0 51 51" fill="none" xmlns="http://www.w3.org/2000/svg">
<path d="M19.6606 8.41602L21.1963 4.45173C21.4553 3.78053 21.911 3.2032 22.5036 2.79535C23.0963 2.38749 23.7983 2.16814 24.5177 2.16602H27.4463C28.1657 2.16814 28.8678 2.38749 29.4604 2.79535C30.0531 3.2032 30.5088 3.78053 30.7677 4.45173L32.3035 8.41602L37.5177 11.416L41.732 10.7732C42.4338 10.6779 43.148 10.7934 43.7839 11.105C44.4198 11.4166 44.9487 11.9102 45.3035 12.5232L46.732 15.0232C47.0981 15.6458 47.2668 16.3649 47.2157 17.0854C47.1647 17.8059 46.8965 18.494 46.4463 19.0589L43.8392 22.3803V28.3803L46.5177 31.7017C46.9679 32.2666 47.2362 32.9547 47.2872 33.6752C47.3382 34.3957 47.1695 35.1148 46.8035 35.7374L45.3749 38.2374C45.0202 38.8504 44.4912 39.344 43.8553 39.6556C43.2194 39.9672 42.5052 40.0827 41.8035 39.9874L37.5892 39.3446L32.3749 42.3446L30.8392 46.3089C30.5802 46.9801 30.1245 47.5574 29.5319 47.9653C28.9392 48.3731 28.2372 48.5925 27.5177 48.5946H24.5177C23.7983 48.5925 23.0963 48.3731 22.5036 47.9653C21.911 47.5574 21.4553 46.9801 21.1963 46.3089L19.6606 42.3446L14.4463 39.3446L10.232 39.9874C9.53031 40.0827 8.8161 39.9672 8.18018 39.6556C7.54426 39.344 7.01533 38.8504 6.6606 38.2374L5.23203 35.7374C4.86597 35.1148 4.69731 34.3957 4.74832 33.6752C4.79933 32.9547 5.0676 32.2666 5.51775 31.7017L8.12489 28.3803V22.3803L5.44632 19.0589C4.99618 18.494 4.7279 17.8059 4.67689 17.0854C4.62588 16.3649 4.79454 15.6458 5.1606 15.0232L6.58917 12.5232C6.9439 11.9102 7.47283 11.4166 8.10875 11.105C8.74467 10.7934 9.45888 10.6779 10.1606 10.7732L14.3749 11.416L19.6606 8.41602Z" stroke="#BFF747" stroke-width="1.5" stroke-linecap="round" stroke-linejoin="round"/>
<path d="M25.9838 36.0946C31.9012 36.0946 36.6981 31.2976 36.6981 25.3803C36.6981 19.463 31.9012 14.666 25.9838 14.666C20.0665 14.666 15.2695 19.463 15.2695 25.3803C15.2695 31.2976 20.0665 36.0946 25.9838 36.0946Z" stroke="#BFF747" stroke-width="1.5" stroke-linecap="round" stroke-linejoin="round"/>
<path d="M25.9805 14.666V25.3803H36.6948" stroke="#BFF747" stroke-width="1.5" stroke-linecap="round" stroke-linejoin="round"/>
<path d="M25.9816 25.3789L18.4102 32.9503" stroke="#BFF747" stroke-width="1.5" stroke-linecap="round" stroke-linejoin="round"/>
</svg>
