<svg width="30" height="31" viewBox="0 0 30 31" fill="none" xmlns="http://www.w3.org/2000/svg">
<path d="M22.1494 3.98864C20.8527 2.92685 19.3364 2.16608 17.71 1.76121C16.0836 1.35634 14.3877 1.31747 12.7444 1.64739C10.6316 2.08057 8.6878 3.11196 7.1446 4.6187C5.6014 6.12544 4.52385 8.04403 4.0403 10.1459C3.55675 12.2478 3.68758 14.4444 4.41722 16.474C5.14685 18.5036 6.44453 20.2807 8.15568 21.5936C10.1093 23.0235 11.7727 24.8125 13.0569 26.8649L13.9319 28.3199C14.0431 28.5047 14.2001 28.6576 14.3878 28.7638C14.5755 28.87 14.7875 28.9257 15.0032 28.9257C15.2188 28.9257 15.4308 28.87 15.6185 28.7638C15.8062 28.6576 15.9633 28.5047 16.0744 28.3199L16.9132 26.9224C18.0315 24.9566 19.5562 23.252 21.3857 21.9224C22.8202 20.9354 24.0057 19.6286 24.8487 18.1051C25.6917 16.5815 26.1692 14.8829 26.2433 13.1432C26.3175 11.4036 25.9864 9.67048 25.2762 8.08068C24.5659 6.49089 23.496 5.08789 22.1507 3.98239L22.1494 3.98864ZM15.0019 17.6774C14.013 17.6774 13.0463 17.3841 12.2241 16.8347C11.4018 16.2853 10.761 15.5044 10.3825 14.5908C10.0041 13.6772 9.90508 12.6718 10.098 11.7019C10.2909 10.732 10.7671 9.84112 11.4664 9.14186C12.1657 8.4426 13.0566 7.96639 14.0265 7.77347C14.9964 7.58054 16.0017 7.67956 16.9153 8.05799C17.829 8.43643 18.6099 9.0773 19.1593 9.89954C19.7087 10.7218 20.0019 11.6885 20.0019 12.6774C20.0019 14.0035 19.4751 15.2752 18.5375 16.2129C17.5998 17.1506 16.328 17.6774 15.0019 17.6774Z" fill="black"/>
</svg>
