<svg width="51" height="51" viewBox="0 0 51 51" fill="none" xmlns="http://www.w3.org/2000/svg">
<path d="M44.9372 2.02148H5.65151C3.67906 2.02148 2.08008 3.62047 2.08008 5.59291V44.8786C2.08008 46.8511 3.67906 48.4501 5.65151 48.4501H44.9372C46.9097 48.4501 48.5086 46.8511 48.5086 44.8786V5.59291C48.5086 3.62047 46.9097 2.02148 44.9372 2.02148Z" stroke="#BFF747" stroke-width="1.5" stroke-linecap="round" stroke-linejoin="round"/>
<path d="M25.293 41.3066C32.1965 41.3066 37.793 35.7102 37.793 28.8066C37.793 21.9031 32.1965 16.3066 25.293 16.3066C18.3894 16.3066 12.793 21.9031 12.793 28.8066C12.793 35.7102 18.3894 41.3066 25.293 41.3066Z" stroke="#BFF747" stroke-width="1.5" stroke-linecap="round" stroke-linejoin="round"/>
<path d="M2.08008 12.7363H12.7944" stroke="#BFF747" stroke-width="1.5" stroke-linecap="round" stroke-linejoin="round"/>
<path d="M37.793 12.7363H48.5073" stroke="#BFF747" stroke-width="1.5" stroke-linecap="round" stroke-linejoin="round"/>
<path d="M25.293 28.7012V41.2012" stroke="#BFF747" stroke-width="1.5" stroke-linecap="round" stroke-linejoin="round"/>
<path d="M14.5801 22.3789L25.2944 28.7003" stroke="#BFF747" stroke-width="1.5" stroke-linecap="round" stroke-linejoin="round"/>
<path d="M36.0073 22.3789L25.293 28.7003" stroke="#BFF747" stroke-width="1.5" stroke-linecap="round" stroke-linejoin="round"/>
</svg>
