<svg width="43" height="43" viewBox="0 0 43 43" fill="none" xmlns="http://www.w3.org/2000/svg">
<g clip-path="url(#clip0_948_4785)">
<path d="M16.4571 6.96484L17.7471 3.63484C17.9646 3.07104 18.3474 2.58608 18.8452 2.24348C19.3431 1.90089 19.9328 1.71663 20.5371 1.71484H22.9971C23.6014 1.71663 24.1911 1.90089 24.6889 2.24348C25.1868 2.58608 25.5695 3.07104 25.7871 3.63484L27.0771 6.96484L31.4571 9.48484L34.9971 8.94484C35.5865 8.86483 36.1865 8.96187 36.7206 9.22361C37.2548 9.48536 37.6991 9.9 37.9971 10.4148L39.1971 12.5148C39.5046 13.0379 39.6463 13.6419 39.6034 14.2471C39.5606 14.8523 39.3352 15.4303 38.9571 15.9048L36.7671 18.6948V23.7348L39.0171 26.5248C39.3952 26.9994 39.6206 27.5774 39.6634 28.1826C39.7063 28.7878 39.5646 29.3918 39.2571 29.9148L38.0571 32.0148C37.7591 32.5297 37.3148 32.9443 36.7806 33.2061C36.2465 33.4678 35.6465 33.5649 35.0571 33.4848L31.5171 32.9448L27.1371 35.4648L25.8471 38.7948C25.6295 39.3587 25.2468 39.8436 24.7489 40.1862C24.2511 40.5288 23.6614 40.7131 23.0571 40.7148H20.5371C19.9328 40.7131 19.3431 40.5288 18.8452 40.1862C18.3474 39.8436 17.9646 39.3587 17.7471 38.7948L16.4571 35.4648L12.0771 32.9448L8.53709 33.4848C7.94764 33.5649 7.34771 33.4678 6.81354 33.2061C6.27937 32.9443 5.83506 32.5297 5.53709 32.0148L4.33709 29.9148C4.0296 29.3918 3.88793 28.7878 3.93077 28.1826C3.97362 27.5774 4.19897 26.9994 4.57709 26.5248L6.76709 23.7348V18.6948L4.51709 15.9048C4.13897 15.4303 3.91362 14.8523 3.87077 14.2471C3.82793 13.6419 3.9696 13.0379 4.27709 12.5148L5.47709 10.4148C5.77506 9.9 6.21937 9.48536 6.75354 9.22361C7.28771 8.96187 7.88764 8.86483 8.47709 8.94484L12.0171 9.48484L16.4571 6.96484Z" stroke="#BFF747" stroke-width="1.5" stroke-linecap="round" stroke-linejoin="round"/>
<path d="M21.7656 30.2148C26.7362 30.2148 30.7656 26.1854 30.7656 21.2148C30.7656 16.2443 26.7362 12.2148 21.7656 12.2148C16.7951 12.2148 12.7656 16.2443 12.7656 21.2148C12.7656 26.1854 16.7951 30.2148 21.7656 30.2148Z" stroke="#BFF747" stroke-width="1.5" stroke-linecap="round" stroke-linejoin="round"/>
<path d="M21.7656 12.2148V21.2148H30.7656" stroke="#BFF747" stroke-width="1.5" stroke-linecap="round" stroke-linejoin="round"/>
<path d="M21.7662 21.2129L15.4062 27.5729" stroke="#BFF747" stroke-width="1.5" stroke-linecap="round" stroke-linejoin="round"/>
</g>
<defs>
<clipPath id="clip0_948_4785">
<rect width="42" height="42" fill="white" transform="translate(0.765625 0.212891)"/>
</clipPath>
</defs>
</svg>
