<svg width="191" height="142" viewBox="0 0 191 142" fill="none" xmlns="http://www.w3.org/2000/svg">
<path d="M145.218 141.076C118.711 141.076 99.5772 119.193 99.5778 86.792C99.7476 39.7148 135.138 6.42981 186.194 0.0377565C190.93 -0.555273 192.757 6.00641 188.395 7.94597C168.804 16.657 158.91 27.7109 157.632 38.652C156.677 46.8263 161.121 53.9869 166.701 55.3277C181.166 58.8037 190.858 76.8178 190.858 95.4357C190.858 120.642 170.424 141.076 145.218 141.076Z" fill="white"/>
<path d="M45.6395 141.076C19.1331 141.076 -0.000949063 119.193 -0.000310926 86.792C0.169445 39.7148 35.5598 6.42981 86.6154 0.0377565C91.3522 -0.555273 93.1786 6.00641 88.8167 7.94597C69.2262 16.657 59.332 27.7109 58.054 38.652C57.0992 46.8263 61.5429 53.9869 67.1227 55.3277C81.5881 58.8037 91.28 76.8178 91.28 95.4357C91.28 120.642 70.8461 141.076 45.6395 141.076Z" fill="white"/>
</svg>
