<svg width="30" height="30" viewBox="0 0 30 30" fill="none" xmlns="http://www.w3.org/2000/svg">
<g clip-path="url(#clip0_369_49)">
<mask id="mask0_369_49" style="mask-type:luminance" maskUnits="userSpaceOnUse" x="0" y="0" width="30" height="30">
<path d="M30 0H0V30H30V0Z" fill="white"/>
</mask>
<g mask="url(#mask0_369_49)">
<path d="M5.63635 5.63635C8.1375 3.13524 11.4629 1.75781 15 1.75781C17.7049 1.75781 20.3201 2.58064 22.5194 4.09963L20.8215 4.27377L21.0009 6.0224L25.5712 5.55365L25.1024 0.98332L23.3538 1.16268L23.5058 2.64457C21.0168 0.92912 18.0591 0 15 0C10.9934 0 7.22655 1.5603 4.39342 4.39342C1.5603 7.22655 0 10.9934 0 15C0 17.9996 0.882655 20.8948 2.55252 23.3727L4.01021 22.3904C3.99 22.3603 3.97037 22.3301 3.95039 22.2999C2.5159 20.1334 1.75781 17.6119 1.75781 15C1.75781 11.4629 3.13524 8.1375 5.63635 5.63635Z" fill="black"/>
<path d="M27.4465 6.62695L25.9887 7.6093C26.0089 7.6393 26.0286 7.6697 26.0485 7.6998C27.483 9.86635 28.2411 12.3879 28.2411 14.9997C28.2411 18.5369 26.8637 21.8622 24.3626 24.3634C21.8615 26.8645 18.5361 28.2419 14.9989 28.2419C12.294 28.2419 9.67882 27.4191 7.47952 25.9001L9.17742 25.726L8.99802 23.9773L4.42773 24.4461L4.89648 29.0164L6.64517 28.8371L6.49317 27.3552C8.98217 29.0706 11.9399 29.9997 14.9989 29.9997C19.0056 29.9997 22.7724 28.4394 25.6056 25.6063C28.4387 22.7732 29.9989 19.0064 29.9989 14.9997C29.9989 12.0002 29.1163 9.1049 27.4465 6.62695Z" fill="black"/>
<path d="M7.32349 16.8446L8.46134 15.7929C9.32339 14.9998 9.48724 14.4653 9.48724 13.8791C9.48724 12.7585 8.53034 12.043 7.14249 12.043C5.95284 12.043 5.09944 12.543 4.64258 13.3016L5.90979 14.0085C6.15114 13.6206 6.54769 13.4223 6.98734 13.4223C7.50454 13.4223 7.76314 13.655 7.76314 14.043C7.76314 14.293 7.69419 14.5689 7.21144 15.0171L4.95289 17.1291V18.198H9.65099V16.8446L7.32349 16.8446Z" fill="black"/>
<path d="M15.0741 17.0432H15.9706V15.6898H15.0741V14.664H13.462V15.6898H12.238L14.6947 12.1641H12.9275L10.2207 15.9312V17.0432H13.4103V18.1984H15.0741V17.0432Z" fill="black"/>
<path d="M17.5213 19.0599L20.366 10.9395H18.9092L16.0645 19.0599H17.5213Z" fill="black"/>
<path d="M21.8143 14.4485V13.5175H23.4004L21.3661 18.1984H23.2281L25.3573 13.233V12.1641H20.3574V14.4485H21.8143Z" fill="black"/>
</g>
</g>
<defs>
<clipPath id="clip0_369_49">
<rect width="30" height="30" fill="white"/>
</clipPath>
</defs>
</svg>
