<svg width="41" height="41" viewBox="0 0 41 41" fill="none" xmlns="http://www.w3.org/2000/svg">
<path fill-rule="evenodd" clip-rule="evenodd" d="M27.3673 13.3641C26.9423 13.3641 26.5227 13.3859 26.1086 13.4281L26.1087 8.35703C26.1087 7.36484 25.3016 6.55781 24.3094 6.55781H19.7119V3.85781C19.7119 2.8875 18.9219 2.09766 17.9516 2.09766H9.22672C8.25641 2.09766 7.46727 2.88758 7.46727 3.85789L7.46734 6.55789H2.86953C1.87742 6.55781 1.07031 7.36484 1.07031 8.35703L1.07047 24.4766C1.07047 25.468 1.87734 26.275 2.86953 26.275H15.0867C15.4079 32.7711 20.7938 37.957 27.3672 37.957C34.1477 37.957 39.6641 32.4406 39.6641 25.6602C39.6641 18.8797 34.1477 13.3641 27.3673 13.3641ZM38.5384 24.8156H31.7369C31.6705 21.4578 31.1328 18.0969 30.1336 14.8031C34.7141 15.9711 38.1758 19.968 38.5384 24.8156ZM28.9126 14.5648C29.9906 17.9297 30.5648 21.3531 30.6336 24.8156H24.1016C24.1704 21.3531 24.7445 17.9297 25.8227 14.5648C26.3274 14.4945 26.843 14.4578 27.3672 14.4578C27.8915 14.4578 28.407 14.4945 28.9126 14.5648ZM16.197 24.8156C16.5595 19.968 20.0211 15.9711 24.6016 14.8031C23.6025 18.0969 23.0648 21.4578 22.9984 24.8156H16.197ZM8.56102 3.85781C8.56102 3.49062 8.85938 3.19141 9.22656 3.19141H17.9516C18.3188 3.19141 18.618 3.49062 18.618 3.85781V6.55781H17.5399V5.19687C17.5399 4.48672 16.9625 3.90937 16.2523 3.90937H10.9258C10.2165 3.90937 9.63906 4.4868 9.63906 5.19687V6.55781H8.56102V3.85781ZM16.4462 6.55781H10.733V5.19687C10.733 5.09141 10.8211 5.00312 10.9258 5.00312H16.2525C16.358 5.00312 16.4461 5.09148 16.4461 5.19687L16.4462 6.55781ZM2.86953 7.65156H24.3094C24.6984 7.65156 25.0148 7.96797 25.0148 8.35703V13.5906C24.0634 13.7758 23.1508 14.0703 22.2914 14.4609H16.8234C16.6619 14.4609 16.5078 14.5328 16.4039 14.657C16.3002 14.782 16.2563 14.9461 16.2852 15.1055C16.3142 15.2656 16.3289 15.4305 16.3289 15.5953C16.329 17.1055 15.1 18.3344 13.5891 18.3344C12.0789 18.3344 10.85 17.1055 10.85 15.5953C10.8501 15.4305 10.8641 15.2656 10.8938 15.1047C10.922 14.9453 10.8789 14.7812 10.775 14.657C10.6711 14.5328 10.5172 14.4609 10.3555 14.4609H2.16414V8.35703C2.16414 7.96797 2.48047 7.65156 2.86953 7.65156ZM2.16414 24.4766V15.5547H9.75633C9.75633 15.568 9.75625 15.5813 9.75625 15.5953C9.75633 17.7086 11.4758 19.4281 13.5891 19.4281C15.7032 19.4281 17.4227 17.7086 17.4227 15.5953C17.4227 15.5813 17.4227 15.568 17.4227 15.5547H20.3703C17.2931 17.6922 15.2344 21.1961 15.0812 25.1812H2.86953C2.48055 25.1812 2.16406 24.8648 2.16414 24.4766ZM16.1681 25.9094H22.9939C23.0313 29.393 23.5758 32.9578 24.6164 36.5211C19.8423 35.3109 16.2805 31.0281 16.1681 25.9094ZM25.8298 36.757C24.7141 33.118 24.1367 29.4945 24.0984 25.9094H30.6369C30.5985 29.4945 30.0211 33.118 28.9055 36.757C28.4025 36.8266 27.8891 36.8633 27.3672 36.8633C26.8461 36.8633 26.3328 36.8266 25.8298 36.757ZM30.1188 36.5211C31.1595 32.9578 31.7039 29.393 31.7414 25.9094H38.5672C38.4547 31.0281 34.893 35.3109 30.1188 36.5211Z" fill="black"/>
</svg>
